<svg xmlns="http://www.w3.org/2000/svg" width="14.063" height="12.853" viewBox="0 0 14.063 12.853">
  <path id="_728945_heart_love_favorite_favourite_like_icon" data-name="728945_heart_love_favorite_favourite_like_icon" d="M10.107.8A2.96,2.96,0,0,1,13.183,3.58a1.124,1.124,0,0,0-.012.129l-.006.319c-.291,2.484-4.087,6.077-6.135,7.759C5,10.118,1.242,6.565.9,4.081L.891,3.709A1.071,1.071,0,0,0,.879,3.58,2.961,2.961,0,0,1,3.955.8,3.169,3.169,0,0,1,6.345,1.87l.686.784.686-.784A3.169,3.169,0,0,1,10.107.8m0-.8A4.075,4.075,0,0,0,7.031,1.368,4.075,4.075,0,0,0,3.955,0,3.8,3.8,0,0,0,0,3.615c0,.04.012.078.013.118H0c0,3.706,7.031,9.12,7.031,9.12s7.031-5.414,7.031-9.12H14.05c0-.04.013-.078.013-.118A3.8,3.8,0,0,0,10.107,0Z" fill="#5f5e5e"/>
</svg>
