<svg xmlns="http://www.w3.org/2000/svg" width="12.28" height="13.038" viewBox="0 0 12.28 13.038">
  <path id="_8111409_export_arrow_share_navigation_location_icon" data-name="8111409_export_arrow_share_navigation_location_icon" d="M57.6,41.256h.878V45.67a1.37,1.37,0,0,1-1.368,1.368H48.278A1.37,1.37,0,0,1,46.91,45.67V36.843a1.37,1.37,0,0,1,1.368-1.368h4.414v.878H48.278a.491.491,0,0,0-.49.49V45.67a.491.491,0,0,0,.49.49h8.828a.491.491,0,0,0,.49-.49ZM51.72,42.834l.876.05.107-1.866a4.344,4.344,0,0,1,1.589-3.207,4.391,4.391,0,0,1,2.689-.925h.529l-1.388,1.389.621.621,2.448-2.448L56.743,34l-.621.621,1.388,1.388h-.529a5.11,5.11,0,0,0-5.156,4.961Z" transform="translate(-46.91 -34)" fill="#5f5e5e"/>
</svg>
