<svg id="그룹_2072" data-name="그룹 2072" xmlns="http://www.w3.org/2000/svg" width="11.744" height="11.745" viewBox="0 0 11.744 11.745">
  <g id="그룹_174" data-name="그룹 174" transform="translate(0 0)">
    <g id="그룹_173" data-name="그룹 173">
      <path id="패스_56" data-name="패스 56" d="M5.172,0a5.172,5.172,0,1,0,5.172,5.172A5.178,5.178,0,0,0,5.172,0Zm0,9.389A4.217,4.217,0,1,1,9.389,5.172,4.222,4.222,0,0,1,5.172,9.389Z" transform="translate(0 0)" fill="#707070"/>
    </g>
  </g>
  <g id="그룹_176" data-name="그룹 176" transform="translate(8.052 8.053)">
    <g id="그룹_175" data-name="그룹 175">
      <path id="패스_57" data-name="패스 57" d="M354.6,353.923l-2.737-2.737a.477.477,0,0,0-.675.675l2.737,2.737a.477.477,0,0,0,.675-.675Z" transform="translate(-351.046 -351.046)" fill="#707070"/>
    </g>
  </g>
</svg>
