<svg xmlns="http://www.w3.org/2000/svg" width="67.703" height="129.618" viewBox="0 0 67.703 129.618">
  <g id="그룹_2393" data-name="그룹 2393" transform="translate(-448.707 -3637.683)">
    <g id="그룹_1138" data-name="그룹 1138" transform="translate(448.707 3637.683)">
      <g id="그룹_1136" data-name="그룹 1136" transform="translate(0 0)">
        <rect id="사각형_134" data-name="사각형 134" width="20.738" height="53.574" transform="translate(23.196 0.004)" fill="#b4d795"/>
        <path id="패스_5927" data-name="패스 5927" d="M552.081,150.951,540,166.052V121h12.081Z" transform="translate(-491.928 -121)" fill="#5c8e46"/>
        <path id="패스_5928" data-name="패스 5928" d="M378,150.951l12.081,15.1V121H378Z" transform="translate(-370.701 -121)" fill="#5c8e46"/>
        <path id="패스_5929" data-name="패스 5929" d="M482.5,322.963c.126.513,0,9.541,0,9.541" transform="translate(-448.9 -272.132)" fill="none" stroke="#5a5a5a" stroke-linecap="round" stroke-miterlimit="10" stroke-width="5"/>
        <path id="패스_5930" data-name="패스 5930" d="M389.766,354.854h0c-7.553-14.782-14.179.073-14.179.073h0A33.424,33.424,0,0,0,349,387.435c0,18.378,15.156,33.277,33.852,33.277s33.852-14.9,33.852-33.277A33.432,33.432,0,0,0,389.766,354.854Zm-7.166-1.341a2.064,2.064,0,1,1,2.013-2.064A2.039,2.039,0,0,1,382.6,353.513Z" transform="translate(-349 -291.094)" fill="#eac033"/>
        <g id="그룹_1135" data-name="그룹 1135" transform="translate(3.947 73.995)">
          <g id="그룹_1133" data-name="그룹 1133" transform="translate(31.2)">
            <path id="패스_5931" data-name="패스 5931" d="M529.55,551.906a10.759,10.759,0,0,1,.5-2.23c.211-.775.455-1.541.741-2.291a9.232,9.232,0,0,1,2.942-4.459,3.019,3.019,0,0,1,.67-.366c.319-.115.217.395.194.552-.081.56-.15,1.124-.262,1.678a11.934,11.934,0,0,1-1.909,4.6,8.694,8.694,0,0,1-1.248,1.4,8.051,8.051,0,0,1-.759.6A2.131,2.131,0,0,1,529.55,551.906Z" transform="translate(-519.255 -510.442)" fill="#fff"/>
            <path id="패스_5932" data-name="패스 5932" d="M555.467,521.178a10.768,10.768,0,0,1-.169-2.279c-.023-.8-.013-1.606.043-2.408a9.229,9.229,0,0,1,1.52-5.121,3.027,3.027,0,0,1,.535-.545c.271-.2.322.315.346.472.085.559.183,1.119.237,1.682a11.936,11.936,0,0,1-.489,4.96,8.7,8.7,0,0,1-.787,1.7,8.12,8.12,0,0,1-.551.8C555.953,520.7,555.775,521.041,555.467,521.178Z" transform="translate(-538.514 -486.672)" fill="#fff"/>
            <path id="패스_5933" data-name="패스 5933" d="M560.308,484.063A10.758,10.758,0,0,1,559,482.187c-.428-.679-.829-1.377-1.189-2.095a9.232,9.232,0,0,1-1.3-5.181,3.023,3.023,0,0,1,.183-.741c.13-.313.437.107.538.23.358.437.727.87,1.06,1.327a11.94,11.94,0,0,1,2.1,4.518,8.673,8.673,0,0,1,.19,1.867,8.135,8.135,0,0,1-.067.968A2.129,2.129,0,0,1,560.308,484.063Z" transform="translate(-539.396 -459.192)" fill="#fff"/>
            <path id="패스_5934" data-name="패스 5934" d="M542.693,452.521a10.766,10.766,0,0,1-1.981-1.141c-.677-.432-1.336-.892-1.968-1.388a9.234,9.234,0,0,1-3.384-4.134,3.029,3.029,0,0,1-.15-.749c-.016-.339.441-.09.584-.021.51.243,1.028.477,1.524.749a11.936,11.936,0,0,1,3.83,3.19,8.677,8.677,0,0,1,.967,1.608,8.136,8.136,0,0,1,.352.9A2.129,2.129,0,0,1,542.693,452.521Z" transform="translate(-523.49 -437.402)" fill="#fff"/>
            <path id="패스_5935" data-name="패스 5935" d="M533.238,423.6a10.759,10.759,0,0,1-1.788-1.424c-.6-.528-1.188-1.082-1.738-1.667a9.233,9.233,0,0,1-2.727-4.593,3.03,3.03,0,0,1-.037-.763c.035-.337.45-.023.581.066.468.317.945.625,1.4.968a11.939,11.939,0,0,1,3.309,3.727,8.693,8.693,0,0,1,.716,1.734,8.107,8.107,0,0,1,.213.947A2.13,2.13,0,0,1,533.238,423.6Z" transform="translate(-517.299 -415)" fill="#fff"/>
            <path id="패스_5936" data-name="패스 5936" d="M488.69,575.007a10.756,10.756,0,0,1,1.338-1.853c.5-.629,1.024-1.238,1.582-1.815a9.23,9.23,0,0,1,4.459-2.942,3.016,3.016,0,0,1,.76-.073c.338.019.044.448-.039.584-.294.483-.58.974-.9,1.439a11.932,11.932,0,0,1-3.566,3.482,8.683,8.683,0,0,1-1.7.8,8.129,8.129,0,0,1-.936.257A2.132,2.132,0,0,1,488.69,575.007Z" transform="translate(-488.678 -529.731)" fill="#fff"/>
            <path id="패스_5937" data-name="패스 5937" d="M490.973,598.027a10.763,10.763,0,0,1,2.28-.167c.8-.022,1.607-.011,2.408.046a9.233,9.233,0,0,1,5.12,1.525,3.038,3.038,0,0,1,.545.535c.2.271-.315.322-.472.345-.559.085-1.119.182-1.682.235a11.933,11.933,0,0,1-4.96-.494,8.671,8.671,0,0,1-1.7-.788,8.084,8.084,0,0,1-.8-.552C491.456,598.514,491.11,598.336,490.973,598.027Z" transform="translate(-490.387 -551.829)" fill="#fff"/>
            <path id="패스_5938" data-name="패스 5938" d="M488.644,607.873a5.284,5.284,0,0,1,1.153.447,12.24,12.24,0,0,1,1.167.594,4.961,4.961,0,0,1,2.159,2.05,1.905,1.905,0,0,1,.145.423c.038.2-.227.1-.309.079-.293-.086-.588-.164-.876-.268a6.077,6.077,0,0,1-2.314-1.444,4.891,4.891,0,0,1-.655-.837,4.828,4.828,0,0,1-.266-.492A1.322,1.322,0,0,1,488.644,607.873Z" transform="translate(-488.644 -559.33)" fill="#fff"/>
            <path id="패스_5939" data-name="패스 5939" d="M512.653,587.832a10.758,10.758,0,0,1,2.254-.379c.8-.1,1.6-.161,2.4-.179a9.232,9.232,0,0,1,5.239,1.041,3.028,3.028,0,0,1,.592.482c.227.251-.284.35-.437.388-.549.137-1.1.285-1.653.391a11.933,11.933,0,0,1-4.984-.029,8.672,8.672,0,0,1-1.769-.626,8.111,8.111,0,0,1-.846-.474C513.179,588.272,512.818,588.127,512.653,587.832Z" transform="translate(-506.61 -543.91)" fill="#fff"/>
            <path id="패스_5940" data-name="패스 5940" d="M534.813,572.39a10.767,10.767,0,0,1,2.063-.984c.739-.313,1.493-.594,2.259-.833a9.235,9.235,0,0,1,5.324-.44,3.022,3.022,0,0,1,.7.3c.288.179-.176.414-.314.493-.49.282-.976.576-1.481.83a11.936,11.936,0,0,1-4.8,1.343,8.667,8.667,0,0,1-1.873-.116,8.159,8.159,0,0,1-.944-.223A2.132,2.132,0,0,1,534.813,572.39Z" transform="translate(-523.193 -530.909)" fill="#fff"/>
            <path id="패스_5941" data-name="패스 5941" d="M548.175,551.431a10.773,10.773,0,0,1,1.619-1.614c.594-.541,1.21-1.057,1.854-1.536a9.234,9.234,0,0,1,4.874-2.186,3.036,3.036,0,0,1,.762.05c.331.073-.029.449-.132.57-.368.429-.729.868-1.121,1.276a11.936,11.936,0,0,1-4.08,2.862,8.672,8.672,0,0,1-1.8.513,8.138,8.138,0,0,1-.965.1A2.132,2.132,0,0,1,548.175,551.431Z" transform="translate(-533.192 -513.098)" fill="#fff"/>
            <path id="패스_5942" data-name="패스 5942" d="M565.257,523.922a10.759,10.759,0,0,1,1.393-1.812c.518-.614,1.061-1.206,1.637-1.766a9.232,9.232,0,0,1,4.546-2.8,3.019,3.019,0,0,1,.762-.05c.338.029.03.449-.056.582-.309.473-.609.956-.944,1.411a11.933,11.933,0,0,1-3.67,3.372,8.651,8.651,0,0,1-1.722.746,8.087,8.087,0,0,1-.943.229A2.129,2.129,0,0,1,565.257,523.922Z" transform="translate(-545.975 -491.688)" fill="#fff"/>
            <path id="패스_5943" data-name="패스 5943" d="M572.66,496.833a10.769,10.769,0,0,1,.661-2.188c.267-.757.566-1.5.905-2.231a9.234,9.234,0,0,1,3.258-4.233,3.027,3.027,0,0,1,.695-.317c.326-.092.188.409.154.564-.121.552-.231,1.11-.383,1.655a11.937,11.937,0,0,1-2.238,4.454,8.67,8.67,0,0,1-1.346,1.307,8.136,8.136,0,0,1-.8.548A2.133,2.133,0,0,1,572.66,496.833Z" transform="translate(-551.515 -469.516)" fill="#fff"/>
            <path id="패스_5944" data-name="패스 5944" d="M576.814,469.491a10.751,10.751,0,0,1,.273-2.269c.132-.792.3-1.579.506-2.354a9.234,9.234,0,0,1,2.477-4.733,3.036,3.036,0,0,1,.63-.432c.305-.147.255.371.249.529-.024.565-.036,1.133-.092,1.7a11.936,11.936,0,0,1-1.434,4.773,8.683,8.683,0,0,1-1.1,1.52,8.034,8.034,0,0,1-.694.678A2.13,2.13,0,0,1,576.814,469.491Z" transform="translate(-554.62 -448.432)" fill="#fff"/>
            <path id="패스_5945" data-name="패스 5945" d="M569.318,449.555a10.767,10.767,0,0,1-.516-2.227c-.145-.79-.258-1.586-.325-2.386a9.234,9.234,0,0,1,.719-5.293,3.02,3.02,0,0,1,.445-.62c.237-.242.366.262.414.413.17.539.352,1.078.491,1.626a11.935,11.935,0,0,1,.275,4.977,8.677,8.677,0,0,1-.517,1.8,8.135,8.135,0,0,1-.422.874A2.129,2.129,0,0,1,569.318,449.555Z" transform="translate(-548.326 -432.932)" fill="#fff"/>
            <path id="패스_5946" data-name="패스 5946" d="M553.378,426.995a10.773,10.773,0,0,1-1.137-1.983c-.367-.714-.705-1.443-1-2.19a9.229,9.229,0,0,1-.842-5.275,3.021,3.021,0,0,1,.247-.723c.157-.3.426.145.516.276.318.467.649.93.94,1.414a11.934,11.934,0,0,1,1.7,4.684,8.693,8.693,0,0,1,.026,1.876,8.1,8.1,0,0,1-.151.959A2.13,2.13,0,0,1,553.378,426.995Z" transform="translate(-534.756 -416.289)" fill="#fff"/>
          </g>
          <g id="그룹_1134" data-name="그룹 1134">
            <path id="패스_5947" data-name="패스 5947" d="M419.025,551.906a10.773,10.773,0,0,0-.5-2.23c-.211-.775-.455-1.541-.741-2.291a9.234,9.234,0,0,0-2.942-4.459,3.013,3.013,0,0,0-.67-.366c-.318-.115-.216.395-.194.552.081.56.15,1.124.262,1.678a11.939,11.939,0,0,0,1.909,4.6,8.684,8.684,0,0,0,1.248,1.4,8.145,8.145,0,0,0,.759.6A2.133,2.133,0,0,0,419.025,551.906Z" transform="translate(-401.545 -510.442)" fill="#fff"/>
            <path id="패스_5948" data-name="패스 5948" d="M400.011,521.178a10.758,10.758,0,0,0,.169-2.279c.023-.8.012-1.606-.043-2.408a9.234,9.234,0,0,0-1.52-5.121,3.035,3.035,0,0,0-.535-.545c-.271-.2-.322.315-.346.472-.085.559-.183,1.119-.237,1.682a11.936,11.936,0,0,0,.489,4.96,8.666,8.666,0,0,0,.787,1.7,8.121,8.121,0,0,0,.55.8C399.525,520.7,399.7,521.041,400.011,521.178Z" transform="translate(-389.189 -486.672)" fill="#fff"/>
            <path id="패스_5949" data-name="패스 5949" d="M391.112,484.063a10.759,10.759,0,0,0,1.306-1.876c.429-.679.829-1.377,1.189-2.095a9.232,9.232,0,0,0,1.3-5.181,3.044,3.044,0,0,0-.183-.741c-.13-.313-.437.107-.538.23-.358.437-.727.87-1.06,1.327a11.936,11.936,0,0,0-2.1,4.518,8.679,8.679,0,0,0-.19,1.867,8.1,8.1,0,0,0,.067.968A2.135,2.135,0,0,0,391.112,484.063Z" transform="translate(-384.249 -459.192)" fill="#fff"/>
            <path id="패스_5950" data-name="패스 5950" d="M398.7,452.521a10.775,10.775,0,0,0,1.981-1.141c.677-.432,1.336-.892,1.968-1.388a9.235,9.235,0,0,0,3.383-4.134,3.033,3.033,0,0,0,.151-.749c.016-.339-.441-.09-.584-.021-.51.243-1.029.477-1.524.749a11.934,11.934,0,0,0-3.829,3.19,8.679,8.679,0,0,0-.967,1.608,8.1,8.1,0,0,0-.352.9A2.134,2.134,0,0,0,398.7,452.521Z" transform="translate(-390.131 -437.402)" fill="#fff"/>
            <path id="패스_5951" data-name="패스 5951" d="M411.583,423.6a10.766,10.766,0,0,0,1.788-1.424c.6-.528,1.188-1.082,1.738-1.667a9.233,9.233,0,0,0,2.727-4.593,3.028,3.028,0,0,0,.037-.763c-.035-.337-.449-.023-.581.066-.468.317-.946.625-1.4.968a11.939,11.939,0,0,0-3.309,3.727,8.686,8.686,0,0,0-.716,1.734,8.126,8.126,0,0,0-.213.947A2.132,2.132,0,0,0,411.583,423.6Z" transform="translate(-399.747 -415)" fill="#fff"/>
            <path id="패스_5952" data-name="패스 5952" d="M450.32,575.007a10.753,10.753,0,0,0-1.337-1.853c-.5-.629-1.024-1.238-1.583-1.815a9.228,9.228,0,0,0-4.459-2.942,3.014,3.014,0,0,0-.76-.073c-.338.019-.044.448.039.584.294.483.58.974.9,1.439a11.929,11.929,0,0,0,3.566,3.482,8.673,8.673,0,0,0,1.7.8,8.161,8.161,0,0,0,.936.257A2.133,2.133,0,0,0,450.32,575.007Z" transform="translate(-422.556 -529.731)" fill="#fff"/>
            <path id="패스_5953" data-name="패스 5953" d="M441.792,598.027a10.761,10.761,0,0,0-2.28-.167c-.8-.022-1.607-.011-2.408.046a9.233,9.233,0,0,0-5.12,1.525,3.023,3.023,0,0,0-.545.535c-.2.271.315.322.472.345.559.085,1.119.182,1.682.235a11.934,11.934,0,0,0,4.96-.494,8.684,8.684,0,0,0,1.7-.788,8.106,8.106,0,0,0,.8-.552C441.31,598.514,441.656,598.336,441.792,598.027Z" transform="translate(-414.604 -551.829)" fill="#fff"/>
            <path id="패스_5954" data-name="패스 5954" d="M461.275,607.873a5.277,5.277,0,0,0-1.152.447,12.229,12.229,0,0,0-1.167.594,4.961,4.961,0,0,0-2.159,2.05,1.878,1.878,0,0,0-.145.423c-.038.2.227.1.309.079.292-.086.588-.164.876-.268a6.076,6.076,0,0,0,2.314-1.444,4.885,4.885,0,0,0,.655-.837,4.786,4.786,0,0,0,.266-.492A1.321,1.321,0,0,0,461.275,607.873Z" transform="translate(-433.5 -559.33)" fill="#fff"/>
            <path id="패스_5955" data-name="패스 5955" d="M419.677,587.832a10.757,10.757,0,0,0-2.254-.379c-.8-.1-1.6-.161-2.4-.179a9.231,9.231,0,0,0-5.239,1.041,3.016,3.016,0,0,0-.592.482c-.227.251.284.35.438.388.548.137,1.1.285,1.653.391a11.934,11.934,0,0,0,4.984-.029,8.668,8.668,0,0,0,1.769-.626,8.1,8.1,0,0,0,.847-.474C419.151,588.272,419.512,588.127,419.677,587.832Z" transform="translate(-397.944 -543.91)" fill="#fff"/>
            <path id="패스_5956" data-name="패스 5956" d="M397.826,572.39a10.758,10.758,0,0,0-2.063-.984c-.74-.313-1.493-.594-2.26-.833a9.234,9.234,0,0,0-5.323-.44,3.024,3.024,0,0,0-.7.3c-.288.179.176.414.314.493.49.282.976.576,1.481.83a11.936,11.936,0,0,0,4.8,1.343,8.666,8.666,0,0,0,1.873-.116,8.149,8.149,0,0,0,.944-.223A2.131,2.131,0,0,0,397.826,572.39Z" transform="translate(-381.671 -530.909)" fill="#fff"/>
            <path id="패스_5957" data-name="패스 5957" d="M388.016,551.431a10.763,10.763,0,0,0-1.619-1.614c-.594-.541-1.21-1.057-1.854-1.536a9.233,9.233,0,0,0-4.874-2.186,3.033,3.033,0,0,0-.762.05c-.331.073.029.449.132.57.368.429.729.868,1.121,1.276a11.936,11.936,0,0,0,4.08,2.862,8.675,8.675,0,0,0,1.8.513,8.134,8.134,0,0,0,.965.1A2.131,2.131,0,0,0,388.016,551.431Z" transform="translate(-375.224 -513.098)" fill="#fff"/>
            <path id="패스_5958" data-name="패스 5958" d="M373.173,523.922a10.768,10.768,0,0,0-1.393-1.812c-.518-.614-1.062-1.206-1.637-1.766a9.232,9.232,0,0,0-4.546-2.8,3.021,3.021,0,0,0-.762-.05c-.338.029-.03.449.056.582.309.473.609.956.944,1.411a11.936,11.936,0,0,0,3.67,3.372,8.66,8.66,0,0,0,1.722.746,8.067,8.067,0,0,0,.943.229A2.128,2.128,0,0,0,373.173,523.922Z" transform="translate(-364.681 -491.688)" fill="#fff"/>
            <path id="패스_5959" data-name="패스 5959" d="M373.981,496.833a10.761,10.761,0,0,0-.661-2.188c-.267-.757-.566-1.5-.905-2.231a9.233,9.233,0,0,0-3.258-4.233,3.023,3.023,0,0,0-.695-.317c-.326-.092-.187.409-.153.564.121.552.231,1.11.383,1.655a11.935,11.935,0,0,0,2.238,4.454,8.671,8.671,0,0,0,1.346,1.307,8.147,8.147,0,0,0,.8.548A2.133,2.133,0,0,0,373.981,496.833Z" transform="translate(-367.352 -469.516)" fill="#fff"/>
            <path id="패스_5960" data-name="패스 5960" d="M374.539,469.491a10.769,10.769,0,0,0-.273-2.269c-.132-.792-.3-1.579-.506-2.354a9.231,9.231,0,0,0-2.477-4.733,3.035,3.035,0,0,0-.63-.432c-.305-.147-.255.371-.249.529.024.565.036,1.133.092,1.7a11.936,11.936,0,0,0,1.435,4.773,8.669,8.669,0,0,0,1.1,1.52,8.132,8.132,0,0,0,.694.678A2.131,2.131,0,0,0,374.539,469.491Z" transform="translate(-368.958 -448.432)" fill="#fff"/>
            <path id="패스_5961" data-name="패스 5961" d="M386.719,449.555a10.772,10.772,0,0,0,.515-2.227c.145-.79.258-1.586.325-2.386a9.231,9.231,0,0,0-.719-5.293,3.021,3.021,0,0,0-.445-.62c-.237-.242-.366.262-.414.413-.17.539-.352,1.078-.491,1.626a11.939,11.939,0,0,0-.275,4.977,8.685,8.685,0,0,0,.518,1.8,8.094,8.094,0,0,0,.422.874A2.129,2.129,0,0,0,386.719,449.555Z" transform="translate(-379.936 -432.932)" fill="#fff"/>
            <path id="패스_5962" data-name="패스 5962" d="M399.6,426.995a10.743,10.743,0,0,0,1.137-1.983c.368-.714.705-1.443,1-2.19a9.234,9.234,0,0,0,.842-5.275,3.036,3.036,0,0,0-.247-.723c-.157-.3-.426.145-.516.276-.319.467-.649.93-.94,1.414a11.939,11.939,0,0,0-1.7,4.684,8.679,8.679,0,0,0-.026,1.876,8.061,8.061,0,0,0,.151.959A2.129,2.129,0,0,0,399.6,426.995Z" transform="translate(-390.442 -416.289)" fill="#fff"/>
          </g>
        </g>
      </g>
      <text id="_1" data-name="1" transform="translate(21.986 103.886)" fill="#fff" font-size="36" font-family="NanumGothicExtraBold, NanumGothic"><tspan x="0" y="0">1</tspan></text>
    </g>
  </g>
</svg>
