<svg xmlns="http://www.w3.org/2000/svg" width="47.591" height="47.591" viewBox="0 0 47.591 47.591">
  <g id="그룹_2392" data-name="그룹 2392" transform="translate(-446 -1030)">
    <circle id="타원_95" data-name="타원 95" cx="23.795" cy="23.795" r="23.795" transform="translate(446 1030)" fill="#35600c"/>
    <path id="패스_8638" data-name="패스 8638" d="M18.51,1.5a.722.722,0,0,1-.3-.045.5.5,0,0,1-.18-.255L15.87-4.2H6.09L3.93,1.2a.4.4,0,0,1-.15.255.722.722,0,0,1-.3.045H.72q-.54,0-.36-.42L9.12-20.79a1.056,1.056,0,0,1,.135-.285A.694.694,0,0,1,9.6-21.12h2.79a.7.7,0,0,1,.33.045.749.749,0,0,1,.15.285L21.63,1.08q.15.42-.36.42ZM7.32-7.35h7.29l-3.63-9.24Z" transform="translate(458.688 1063.12)" fill="#fff"/>
  </g>
</svg>
