<svg xmlns="http://www.w3.org/2000/svg" width="62" height="82" viewBox="0 0 62 82">
  <g id="그룹_2253" data-name="그룹 2253" transform="translate(-370 -842)">
    <circle id="타원_95" data-name="타원 95" cx="31" cy="31" r="31" transform="translate(370 842)" fill="#35600c"/>
    <path id="패스_8630" data-name="패스 8630" d="M21.793,7.03a2.416,2.416,0,0,1-.666-.055,1.181,1.181,0,0,1-.37-.278L16.539,2.4q-.444.074-.906.111t-.981.037A12.766,12.766,0,0,1,9.306,1.5a10.739,10.739,0,0,1-3.885-2.96A12.85,12.85,0,0,1,3.053-6.049a20.979,20.979,0,0,1-.8-5.975,21.381,21.381,0,0,1,.684-5.55A12.672,12.672,0,0,1,5.18-22.126a10.963,10.963,0,0,1,4.107-3.33A12.461,12.461,0,0,1,14.652-26.6a11.9,11.9,0,0,1,5.421,1.165,11.968,11.968,0,0,1,4.015,3.312,12.9,12.9,0,0,1,2.164,4.218,18.5,18.5,0,0,1,.8,4.865,21.187,21.187,0,0,1-.426,4.921A17.017,17.017,0,0,1,25.086-3.7,9.886,9.886,0,0,1,24.2-2.257a12.736,12.736,0,0,1-1.11,1.313A12.732,12.732,0,0,1,21.867.166a6.072,6.072,0,0,1-1.184.759L25.9,6.142q.481.518.333.7t-.666.185ZM20.72-19.314a7.5,7.5,0,0,0-2.59-2.479,6.987,6.987,0,0,0-3.478-.851,6.97,6.97,0,0,0-3.718.943,7.615,7.615,0,0,0-2.5,2.479A11.6,11.6,0,0,0,7.012-15.8a15.8,15.8,0,0,0-.463,3.774,16.106,16.106,0,0,0,.463,3.848A10.593,10.593,0,0,0,8.473-4.792a7.863,7.863,0,0,0,2.553,2.424,7.1,7.1,0,0,0,3.7.925,6.87,6.87,0,0,0,3.367-.814A7.463,7.463,0,0,0,20.59-4.5a10.884,10.884,0,0,0,1.572-3.367,15.09,15.09,0,0,0,.555-4.162,15.118,15.118,0,0,0-.5-3.885A11.481,11.481,0,0,0,20.72-19.314Z" transform="translate(386.742 882.603)" fill="#fff"/>
    <text id="문의하신_내용" data-name="문의하신 내용" transform="translate(372 923)" fill="#333" font-size="10" font-family="NanumGothic"><tspan x="0" y="0">문의하신 내용</tspan></text>
  </g>
</svg>
