<svg xmlns="http://www.w3.org/2000/svg" width="62" height="82" viewBox="0 0 62 82">
  <g id="그룹_2393" data-name="그룹 2393" transform="translate(-374 -1118)">
    <text id="답변내용" transform="translate(386.398 1199)" fill="#333" font-size="10" font-family="NanumGothic"><tspan x="0" y="0">답변내용</tspan></text>
    <g id="그룹_2392" data-name="그룹 2392">
      <path id="패스_8635" data-name="패스 8635" d="M31,0A31,31,0,1,1,0,31,31,31,0,0,1,31,0Z" transform="translate(374 1118)" fill="#6a983e"/>
      <path id="패스_8638" data-name="패스 8638" d="M21.27,11.433a.684.684,0,0,1-.346-.065A.731.731,0,0,1,20.717,11L18.229,3.23H6.966L4.478,11a.6.6,0,0,1-.173.367.684.684,0,0,1-.346.065H.781q-.622,0-.415-.6L10.456-20.645a1.7,1.7,0,0,1,.155-.41q.052-.065.4-.065h3.213a.665.665,0,0,1,.38.065,1.176,1.176,0,0,1,.173.41L24.863,10.829q.173.6-.415.6ZM8.383-1.3h8.4L12.6-14.6Z" transform="translate(392.805 1154.101)" fill="#fff"/>
    </g>
  </g>
</svg>
