<svg xmlns="http://www.w3.org/2000/svg" width="100.741" height="100.22" viewBox="0 0 100.741 100.22">
  <g id="그룹_2305" data-name="그룹 2305" transform="translate(-1782.965 -267.282) rotate(-17)">
    <g id="타원_232" data-name="타원 232" transform="translate(1620 799.5)" fill="#fff" stroke="#5c8e46" stroke-width="0.6">
      <ellipse cx="40.431" cy="40.038" rx="40.431" ry="40.038" stroke="none"/>
      <ellipse cx="40.431" cy="40.038" rx="40.131" ry="39.738" fill="none"/>
    </g>
    <g id="타원_233" data-name="타원 233" transform="translate(1626.281 804.995)" fill="#fff" stroke="#5c8e46" stroke-width="1">
      <circle cx="34.15" cy="34.15" r="34.15" stroke="none"/>
      <circle cx="34.15" cy="34.15" r="33.65" fill="none"/>
    </g>
    <g id="교차_1" data-name="교차 1" transform="translate(1626.27 831.764)" fill="#5c8e46">
      <path d="M 66.38255310058594 14.50394439697266 L 1.546368598937988 14.50394439697266 C 0.9514262676239014 11.99446392059326 0.6500009894371033 9.403359413146973 0.6500009894371033 6.794204235076904 C 0.6500009894371033 4.729284763336182 0.839951753616333 2.665047168731689 1.215014100074768 0.6500043869018555 L 66.71403503417969 0.6500043869018555 C 67.08957672119141 2.667124509811401 67.27980041503906 4.73145866394043 67.27980041503906 6.794204235076904 C 67.27980041503906 9.399004936218262 66.97811889648438 11.98993396759033 66.38255310058594 14.50394439697266 Z" stroke="none"/>
      <path d="M 65.86436462402344 13.85394477844238 C 66.37260437011719 11.54608821868896 66.62979888916016 9.17617130279541 66.62979888916016 6.794204235076904 C 66.62979888916016 4.951849937438965 66.47512817382812 3.108579158782959 66.16932678222656 1.300004363059998 L 1.759761452674866 1.300004363059998 C 1.454450488090515 3.106770277023315 1.30000102519989 4.950139999389648 1.30000102519989 6.794204235076904 C 1.30000102519989 9.18000602722168 1.556888341903687 11.54996109008789 2.064483880996704 13.85394477844238 L 65.86436462402344 13.85394477844238 M 66.89250183105469 15.15394401550293 L 1.0365309715271 15.15394401550293 C 0.3588009774684906 12.47981452941895 9.704590411274694e-07 9.679174423217773 9.704590411274694e-07 6.794204235076904 C 9.704590411274694e-07 4.467374324798584 0.2338309735059738 2.19573450088501 0.6792709827423096 4.391937181935646e-06 L 67.24976348876953 4.391937181935646e-06 C 67.69519805908203 2.19573450088501 67.92980194091797 4.467374324798584 67.92980194091797 6.794204235076904 C 67.92980194091797 9.679174423217773 67.56947326660156 12.47981452941895 66.89250183105469 15.15394401550293 Z" stroke="none" fill="#5c8e46"/>
    </g>
    <g id="그룹_2301" data-name="그룹 2301" transform="translate(1640.901 809.057)">
      <g id="Layer_1" transform="translate(0 6.654)">
        <path id="패스_8670" data-name="패스 8670" d="M31.571,37.087l-1.352-.751-1.362.686a.234.234,0,0,1-.316-.253l.29-1.49s-.925-.941-1.062-1.072a.225.225,0,0,1,.152-.393l1.487-.182s.657-1.257.717-1.372a.233.233,0,0,1,.373.01l.654,1.4s1.422.238,1.54.26a.211.211,0,0,1,.087.363l-1.126,1.048s.213,1.407.234,1.58S31.713,37.166,31.571,37.087Z" transform="translate(-27.693 -32.172)" fill="none" stroke="#5c8e46" stroke-linecap="round" stroke-linejoin="round" stroke-miterlimit="10" stroke-width="0.6"/>
      </g>
      <g id="Layer_1-2" data-name="Layer_1" transform="translate(33.513 6.654)">
        <path id="패스_8670-2" data-name="패스 8670" d="M31.571,37.087l-1.352-.751-1.362.686a.234.234,0,0,1-.316-.253l.29-1.49s-.925-.941-1.062-1.072a.225.225,0,0,1,.152-.393l1.487-.182s.657-1.257.717-1.372a.233.233,0,0,1,.373.01l.654,1.4s1.422.238,1.54.26a.211.211,0,0,1,.087.363l-1.126,1.048s.213,1.407.234,1.58S31.713,37.166,31.571,37.087Z" transform="translate(-27.693 -32.172)" fill="none" stroke="#5c8e46" stroke-linecap="round" stroke-linejoin="round" stroke-miterlimit="10" stroke-width="0.6"/>
      </g>
      <g id="Layer_1-3" data-name="Layer_1" transform="translate(7.838 2.473)">
        <path id="패스_8670-3" data-name="패스 8670" d="M31.571,37.087l-1.352-.751-1.362.686a.234.234,0,0,1-.316-.253l.29-1.49s-.925-.941-1.062-1.072a.225.225,0,0,1,.152-.393l1.487-.182s.657-1.257.717-1.372a.233.233,0,0,1,.373.01l.654,1.4s1.422.238,1.54.26a.211.211,0,0,1,.087.363l-1.126,1.048s.213,1.407.234,1.58S31.713,37.166,31.571,37.087Z" transform="translate(-27.693 -32.172)" fill="none" stroke="#5c8e46" stroke-linecap="round" stroke-linejoin="round" stroke-miterlimit="10" stroke-width="0.6"/>
      </g>
      <g id="Layer_1-4" data-name="Layer_1" transform="translate(25.675 2.473)">
        <path id="패스_8670-4" data-name="패스 8670" d="M31.571,37.087l-1.352-.751-1.362.686a.234.234,0,0,1-.316-.253l.29-1.49s-.925-.941-1.062-1.072a.225.225,0,0,1,.152-.393l1.487-.182s.657-1.257.717-1.372a.233.233,0,0,1,.373.01l.654,1.4s1.422.238,1.54.26a.211.211,0,0,1,.087.363l-1.126,1.048s.213,1.407.234,1.58S31.713,37.166,31.571,37.087Z" transform="translate(-27.693 -32.172)" fill="none" stroke="#5c8e46" stroke-linecap="round" stroke-linejoin="round" stroke-miterlimit="10" stroke-width="0.6"/>
      </g>
      <g id="Layer_1-5" data-name="Layer_1" transform="translate(16.757 0)">
        <path id="패스_8670-5" data-name="패스 8670" d="M31.571,37.087l-1.352-.751-1.362.686a.234.234,0,0,1-.316-.253l.29-1.49s-.925-.941-1.062-1.072a.225.225,0,0,1,.152-.393l1.487-.182s.657-1.257.717-1.372a.233.233,0,0,1,.373.01l.654,1.4s1.422.238,1.54.26a.211.211,0,0,1,.087.363l-1.126,1.048s.213,1.407.234,1.58S31.713,37.166,31.571,37.087Z" transform="translate(-27.693 -32.172)" fill="none" stroke="#5c8e46" stroke-linecap="round" stroke-linejoin="round" stroke-miterlimit="10" stroke-width="0.6"/>
      </g>
    </g>
    <g id="그룹_2302" data-name="그룹 2302" transform="translate(1640.901 858.175)">
      <g id="Layer_1-6" data-name="Layer_1" transform="translate(0 0)">
        <path id="패스_8670-6" data-name="패스 8670" d="M31.571,32.2l-1.352.751-1.362-.686a.234.234,0,0,0-.316.253l.29,1.49s-.925.941-1.062,1.072a.225.225,0,0,0,.152.393l1.487.182s.657,1.257.717,1.372a.233.233,0,0,0,.373-.01l.654-1.4s1.422-.238,1.54-.26A.211.211,0,0,0,32.778,35l-1.126-1.048s.213-1.407.234-1.58S31.713,32.126,31.571,32.2Z" transform="translate(-27.693 -32.172)" fill="none" stroke="#5c8e46" stroke-linecap="round" stroke-linejoin="round" stroke-miterlimit="10" stroke-width="0.6"/>
      </g>
      <g id="Layer_1-7" data-name="Layer_1" transform="translate(33.513 0)">
        <path id="패스_8670-7" data-name="패스 8670" d="M31.571,32.2l-1.352.751-1.362-.686a.234.234,0,0,0-.316.253l.29,1.49s-.925.941-1.062,1.072a.225.225,0,0,0,.152.393l1.487.182s.657,1.257.717,1.372a.233.233,0,0,0,.373-.01l.654-1.4s1.422-.238,1.54-.26A.211.211,0,0,0,32.778,35l-1.126-1.048s.213-1.407.234-1.58S31.713,32.126,31.571,32.2Z" transform="translate(-27.693 -32.172)" fill="none" stroke="#5c8e46" stroke-linecap="round" stroke-linejoin="round" stroke-miterlimit="10" stroke-width="0.6"/>
      </g>
      <g id="Layer_1-8" data-name="Layer_1" transform="translate(7.838 4.18)">
        <path id="패스_8670-8" data-name="패스 8670" d="M31.571,32.2l-1.352.751-1.362-.686a.234.234,0,0,0-.316.253l.29,1.49s-.925.941-1.062,1.072a.225.225,0,0,0,.152.393l1.487.182s.657,1.257.717,1.372a.233.233,0,0,0,.373-.01l.654-1.4s1.422-.238,1.54-.26A.211.211,0,0,0,32.778,35l-1.126-1.048s.213-1.407.234-1.58S31.713,32.126,31.571,32.2Z" transform="translate(-27.693 -32.172)" fill="none" stroke="#5c8e46" stroke-linecap="round" stroke-linejoin="round" stroke-miterlimit="10" stroke-width="0.6"/>
      </g>
      <g id="Layer_1-9" data-name="Layer_1" transform="translate(25.675 4.18)">
        <path id="패스_8670-9" data-name="패스 8670" d="M31.571,32.2l-1.352.751-1.362-.686a.234.234,0,0,0-.316.253l.29,1.49s-.925.941-1.062,1.072a.225.225,0,0,0,.152.393l1.487.182s.657,1.257.717,1.372a.233.233,0,0,0,.373-.01l.654-1.4s1.422-.238,1.54-.26A.211.211,0,0,0,32.778,35l-1.126-1.048s.213-1.407.234-1.58S31.713,32.126,31.571,32.2Z" transform="translate(-27.693 -32.172)" fill="none" stroke="#5c8e46" stroke-linecap="round" stroke-linejoin="round" stroke-miterlimit="10" stroke-width="0.6"/>
      </g>
      <g id="Layer_1-10" data-name="Layer_1" transform="translate(16.757 6.653)">
        <path id="패스_8670-10" data-name="패스 8670" d="M31.571,32.2l-1.352.751-1.362-.686a.234.234,0,0,0-.316.253l.29,1.49s-.925.941-1.062,1.072a.225.225,0,0,0,.152.393l1.487.182s.657,1.257.717,1.372a.233.233,0,0,0,.373-.01l.654-1.4s1.422-.238,1.54-.26A.211.211,0,0,0,32.778,35l-1.126-1.048s.213-1.407.234-1.58S31.713,32.126,31.571,32.2Z" transform="translate(-27.693 -32.172)" fill="none" stroke="#5c8e46" stroke-linecap="round" stroke-linejoin="round" stroke-miterlimit="10" stroke-width="0.6"/>
      </g>
    </g>
    <path id="패스_8672" data-name="패스 8672" d="M5.976,1.78H1.714a1.115,1.115,0,0,1-.271-.027.344.344,0,0,1-.16-.084.29.29,0,0,1-.076-.153,1.21,1.21,0,0,1-.019-.233V.489A1.2,1.2,0,0,1,1.206.253.288.288,0,0,1,1.283.1a.316.316,0,0,1,.157-.08A1.239,1.239,0,0,1,1.706,0H4.823q.069,0,.069-.084V-.221q0-.092-.076-.092H1.325a.179.179,0,0,1-.118-.031.163.163,0,0,1-.034-.122V-.9a.135.135,0,0,1,.153-.153H3.043v-.412H.286q-.107,0-.13-.034a.244.244,0,0,1-.023-.126v-.5a.179.179,0,0,1,.031-.118.163.163,0,0,1,.122-.034H6.839a.2.2,0,0,1,.115.031A.137.137,0,0,1,7-2.123v.5a.142.142,0,0,1-.16.16H4.1v.412H5.388a.6.6,0,0,1,.443.115.582.582,0,0,1,.1.382V.214a1.309,1.309,0,0,1-.019.248.283.283,0,0,1-.073.149.294.294,0,0,1-.16.073A1.615,1.615,0,0,1,5.4.7H2.31A.068.068,0,0,0,2.233.78V.948a.074.074,0,0,0,.084.084H5.968a.247.247,0,0,1,.122.023q.038.023.038.13v.443A.135.135,0,0,1,5.976,1.78Zm.336-4.529q-.031.115-.073.137a.217.217,0,0,1-.134.008q-.267-.023-.569-.065t-.619-.1q-.317-.053-.645-.122t-.634-.137q-.588.176-1.256.306t-1.256.191a.432.432,0,0,1-.168,0q-.038-.015-.069-.1l-.13-.451a.207.207,0,0,1,0-.13q.019-.046.126-.061.512-.061.909-.126t.726-.137q.328-.073.607-.149t.561-.168q.084-.031.084-.061t-.084-.031H1.439a.179.179,0,0,1-.115-.027.161.161,0,0,1-.031-.118v-.443a.148.148,0,0,1,.031-.111.179.179,0,0,1,.115-.027H4.884a1.046,1.046,0,0,1,.527.1.291.291,0,0,1,.16.252.682.682,0,0,1-.141.374,1.566,1.566,0,0,1-.508.42q.336.061.691.111t.668.08q.191,0,.145.183ZM4.487-4.941H2.447a.23.23,0,0,1-.111-.027q-.05-.027-.05-.134v-.443q0-.107.05-.134A.23.23,0,0,1,2.447-5.7H4.487q.176,0,.176.168v.428Q4.662-4.941,4.487-4.941Zm3.8,3.6a.626.626,0,0,1-.195.088q-.05,0-.111-.08L7.611-1.81q-.084-.107-.061-.157a.367.367,0,0,1,.115-.118,3.33,3.33,0,0,0,.71-.63,3.627,3.627,0,0,0,.493-.76,3.668,3.668,0,0,0,.286-.844,4.344,4.344,0,0,0,.092-.89q0-.13.034-.157a.225.225,0,0,1,.141-.019l.726.031a.209.209,0,0,1,.115.034.148.148,0,0,1,.031.111,5.281,5.281,0,0,1-.16,1.329,2.569,2.569,0,0,0,.294.489,3.779,3.779,0,0,0,.39.439,4.257,4.257,0,0,0,.428.363,4.555,4.555,0,0,0,.4.267q.107.069.1.122a.338.338,0,0,1-.065.145l-.29.474q-.061.092-.107.1a.3.3,0,0,1-.153-.046,3.626,3.626,0,0,1-.351-.214,4.267,4.267,0,0,1-.382-.294,4.13,4.13,0,0,1-.37-.363,3.425,3.425,0,0,1-.325-.42A4,4,0,0,1,8.29-1.344ZM13.354,1.75H12.6q-.16,0-.16-.153V.008a.1.1,0,0,0-.115-.115h-3.4a.213.213,0,0,1-.1-.023q-.042-.023-.042-.107v-.6q0-.107.042-.126a.249.249,0,0,1,.1-.019h4.033a1.165,1.165,0,0,1,.275.027.3.3,0,0,1,.164.1.4.4,0,0,1,.08.179A1.364,1.364,0,0,1,13.5-.4v2Q13.5,1.75,13.354,1.75ZM11.246-3.261q-.145,0-.145-.153v-.565q0-.107.042-.126a.249.249,0,0,1,.1-.019h1.2V-5.415q0-.1.042-.122A.231.231,0,0,1,12.6-5.56h.771q.1,0,.115.042a.3.3,0,0,1,.015.1v3.88a.163.163,0,0,1-.031.115.163.163,0,0,1-.115.031h-.764a.179.179,0,0,1-.115-.027.148.148,0,0,1-.031-.111V-3.261Zm8.7,1.489a.167.167,0,0,1-.107-.031.141.141,0,0,1-.038-.115v-.55q0-.107.042-.13a.213.213,0,0,1,.1-.023h.741V-5.285q0-.153.16-.153h.7q.145,0,.145.153v6.66a.161.161,0,0,1-.031.118.179.179,0,0,1-.115.027h-.7a.247.247,0,0,1-.122-.023q-.038-.023-.038-.122V-1.771ZM23.055,1.78H22.3a.163.163,0,0,1-.115-.031.163.163,0,0,1-.031-.115v-7.05a.15.15,0,0,1,.034-.115.179.179,0,0,1,.118-.031h.749a.163.163,0,0,1,.115.031.163.163,0,0,1,.031.115v7.05a.163.163,0,0,1-.031.115A.163.163,0,0,1,23.055,1.78ZM17.2.008a.323.323,0,0,1-.149.057q-.042,0-.1-.088l-.328-.443q-.115-.145.053-.26a5.686,5.686,0,0,0,1.268-1.123,4.622,4.622,0,0,0,.7-1.13.587.587,0,0,0,.031-.107q.008-.046-.1-.046H17.158q-.1,0-.118-.046a.323.323,0,0,1-.019-.122v-.527a.2.2,0,0,1,.027-.118q.027-.034.118-.034h2.177a.728.728,0,0,1,.294.05A.39.39,0,0,1,19.8-3.8a.366.366,0,0,1,.061.2.856.856,0,0,1-.027.237,4.57,4.57,0,0,1-.6,1.352,2.911,2.911,0,0,0,.5.607q.29.271.58.5.107.084.1.134a.35.35,0,0,1-.073.126L19.992-.2q-.069.084-.118.088a.227.227,0,0,1-.134-.057q-.13-.092-.275-.214t-.29-.264q-.145-.141-.279-.29a2.864,2.864,0,0,1-.233-.294,6.74,6.74,0,0,1-.691.684A5.334,5.334,0,0,1,17.2.008Zm2.169-4.377h-1.7a.207.207,0,0,1-.111-.031.142.142,0,0,1-.05-.13v-.527a.142.142,0,0,1,.05-.13.207.207,0,0,1,.111-.031h1.7a.149.149,0,0,1,.168.168v.512A.149.149,0,0,1,19.365-4.368Zm5.576,2.33a.137.137,0,0,1-.111-.034A.215.215,0,0,1,24.8-2.2v-.573A.215.215,0,0,1,24.83-2.9a.137.137,0,0,1,.111-.034h.978q.5,0,1,0t.966-.011q.47-.008.875-.031.015-.267.023-.519t.008-.481a.3.3,0,0,0-.034-.164q-.034-.05-.21-.05H24.911a.323.323,0,0,1-.122-.019q-.046-.019-.046-.118v-.6q0-.084.046-.107a.275.275,0,0,1,.122-.023h4.4a.578.578,0,0,1,.409.126.6.6,0,0,1,.134.447q0,.588-.027,1.192t-.069,1.146q-.042.542-.1,1T29.554-.4h.97a.142.142,0,0,1,.16.16v.55a.142.142,0,0,1-.16.16L23.963.466q-.1,0-.126-.046a.224.224,0,0,1-.027-.115v-.55a.217.217,0,0,1,.027-.122q.027-.038.126-.038L28.539-.4q.046-.321.092-.764t.084-.947q-.412.023-.878.038t-.959.019l-.985.008Q25.4-2.039,24.941-2.039Z" transform="translate(1644.402 841.097)" fill="#fff"/>
  </g>
</svg>
